<svg id="Calque_1" data-name="Calque 1" xmlns="http://www.w3.org/2000/svg" viewBox="0 0 496.03 496.03"><defs><style>.cls-1{fill:none;stroke-width:10px;}.cls-1,.cls-2{stroke:#d68430;stroke-miterlimit:10;}.cls-2{fill:#d68431;}</style></defs><title>logoc2</title><circle class="cls-1" cx="248.02" cy="248.02" r="243.02"/><path class="cls-2" d="M258,37.53c-121.86,0-220.65,98.79-220.65,220.65S136.14,478.83,258,478.83,478.65,380,478.65,258.18,379.86,37.53,258,37.53ZM140.94,296.35h-15V242.81q0-11.77.73-27.32h-.55q-1,4.5-2.45,10.11t-2.94,11.06l-16.95,59.7H94.13l-16.95-59.7q-1.53-5.45-2.94-11.06t-2.45-10.11h-.55Q72,230.1,72,242.73v53.62H57V190.69H77.91L92,241q3.55,12.56,6.67,27h.37q2.69-12.48,6.67-26.77l14.13-50.54h21Zm32.61,0H159V213h14.5Zm-7.06-90.57c-5.81,0-10.53-6.08-10.53-13.59s4.71-13.59,10.53-13.59S177,184.69,177,192.19,172.31,205.78,166.49,205.78Zm76.93,90.57h-14.5V249.6q0-3.08-.18-5.29a19.48,19.48,0,0,0-.67-3.87,9.48,9.48,0,0,0-3.34-5.21,9.14,9.14,0,0,0-5.41-1.58,14.5,14.5,0,0,0-8.11,2.57,23.3,23.3,0,0,0-6.88,7.46v52.68h-14.5V219.83h12l1.35,10.66h.24a27,27,0,0,1,3.24-4.66,23.12,23.12,0,0,1,10-6.83,19.3,19.3,0,0,1,6.46-1.07,20.88,20.88,0,0,1,6.27.95,16.78,16.78,0,0,1,5.54,3,19.49,19.49,0,0,1,4.44,5.21,27.67,27.67,0,0,1,3,7.62,31.78,31.78,0,0,1,.83,5.33q.21,2.88.21,6.67Zm26.32-117.74c5.81,0,10.53,6.08,10.53,13.59s-4.71,13.59-10.53,13.59-10.53-6.08-10.53-13.59S263.93,178.61,269.75,178.61Zm14.58,119.32c-1.1.79-14.78,42.43-19.47,2.8-.5-4.22-.83-7.68-1.09-11l-.14,1.57-.84-78.14h14.59V281.7c1.36,1.85,3.54-.14,7-9.91,11-30.86,33.42-91.44,33.42-91.44Zm103.78-5.64-.14-1.57c-.26,3.34-.59,6.79-1.09,11-4.69,39.63-18.36-2-19.47-2.8L333.92,181.35V300.23h-14.5V178.61h14.5v2.74s22.42,60.58,33.42,91.44c3.48,9.77,5.66,11.75,7,9.91V214.15H389Zm-6.57-86.51c-5.81,0-10.53-6.08-10.53-13.59s4.71-13.59,10.53-13.59,10.53,6.08,10.53,13.59S387.35,205.78,381.53,205.78Zm38.73,55H420v35.62h-14.5V182H420v68.86h.31l22.58-31h17.93l-26,35.93L461,296.35H443.45Z" transform="translate(-9.98 -10.16)"/></svg>